<?xml version="1.0" encoding="UTF-8"?> <svg xmlns="http://www.w3.org/2000/svg" width="128" height="46" viewBox="0 0 128 46" fill="none"><path fill-rule="evenodd" clip-rule="evenodd" d="M0 0.93416H8.63344C13.4355 0.93416 15.9464 3.41608 15.9464 6.46398C15.9464 8.56799 14.7595 9.99703 13.1137 10.7529V10.8073C15.2184 11.5632 16.4053 13.2348 16.4053 15.3651C16.4053 18.413 14.0579 21.083 8.98511 21.083H0V0.93416ZM8.36442 8.91778C9.79394 8.91778 10.4428 8.19008 10.4428 7.37976C10.4428 6.56945 9.7957 5.81538 8.36442 5.81538H5.82889V8.91778H8.36442ZM8.4453 16.2001C9.95571 16.2001 10.6854 15.4724 10.6854 14.5285C10.6854 13.5846 9.92934 12.8569 8.47343 12.8569H5.82889V16.2018H8.4453V16.2001ZM17.6449 12.8832V0.93416H23.5266V12.8287C23.5266 15.0681 24.6326 16.2546 26.521 16.2546C28.4095 16.2546 29.5964 15.0681 29.5964 12.8024V0.93416H35.5061V12.8832C35.5061 17.9543 32.1073 21.5963 26.521 21.5963C20.9348 21.5963 17.6432 17.9543 17.6432 12.8832H17.6449ZM50.4819 7.08271C49.2141 6.19329 47.0549 5.57281 45.3018 5.57281C43.7105 5.57281 42.8999 6.08607 42.8999 6.75928C42.8999 7.43249 43.7897 7.78404 45.3827 8.35003C48.0818 9.29393 51.7497 10.5613 51.7497 14.8501C51.7497 18.6802 48.8625 21.5119 43.7897 21.5119C41.1732 21.5119 38.7714 20.7561 37.2873 19.7595V14.3105C38.745 15.497 40.957 16.4409 43.0881 16.4409C44.8957 16.4409 45.7326 15.7659 45.7326 15.0118C45.7326 14.0416 44.3558 13.6092 42.71 13.0151C40.5508 12.2329 37.1256 10.8302 37.1256 6.91924C37.1256 3.3862 39.9055 0.5 44.8693 0.5C47.0549 0.5 49.0242 1.06599 50.4819 1.90267V7.08271ZM53.2601 0.93416H59.1417V21.083H53.2601V0.93416ZM80.0536 21.083H74.441L67.1826 10.2677H67.1562V21.083H61.5717V0.93416H67.1843L74.4428 11.5614H74.4691V0.93416H80.0536V21.083ZM82.4819 0.93416H96.4044V6.16693H88.3635V8.59436H95.5938V13.342H88.3635V15.8503H96.4044V21.083H82.4819V0.93416ZM111.164 7.08271C109.896 6.19329 107.737 5.57281 105.984 5.57281C104.393 5.57281 103.582 6.08607 103.582 6.75928C103.582 7.43249 104.472 7.78404 106.065 8.35003C108.764 9.29393 112.432 10.5613 112.432 14.8501C112.432 18.6802 109.544 21.5119 104.472 21.5119C101.855 21.5119 99.4534 20.7561 97.9693 19.7595V14.3105C99.427 15.497 101.639 16.4409 103.77 16.4409C105.578 16.4409 106.415 15.7659 106.415 15.0118C106.415 14.0416 105.038 13.6092 103.392 13.0151C101.233 12.2329 97.8076 10.8302 97.8076 6.91924C97.8076 3.3862 100.588 0.5 105.551 0.5C107.737 0.5 109.706 1.06599 111.164 1.90267V7.08271ZM126.732 7.08271C125.464 6.19329 123.305 5.57281 121.552 5.57281C119.961 5.57281 119.15 6.08607 119.15 6.75928C119.15 7.43249 120.04 7.78404 121.633 8.35003C124.332 9.29393 128 10.5613 128 14.8501C128 18.6802 125.113 21.5119 120.04 21.5119C117.424 21.5119 115.022 20.7561 113.538 19.7595V14.3105C114.995 15.497 117.207 16.4409 119.338 16.4409C121.146 16.4409 121.983 15.7659 121.983 15.0118C121.983 14.0416 120.606 13.6092 118.96 13.0151C116.801 12.2329 113.376 10.8302 113.376 6.91924C113.376 3.3862 116.156 0.5 121.12 0.5C123.305 0.5 125.275 1.06599 126.732 1.90267V7.08271ZM12.1712 45.0676H18.0529V24.9205H12.1712V45.0694V45.0676ZM38.9613 24.9205H33.3768V35.5477H33.3504L26.092 24.9205H20.4794V45.0694H26.0638V34.254H26.0902L33.3486 45.0694H38.9613V24.9205ZM48.4282 24.4881C43.4626 24.4881 40.6844 27.3743 40.6844 30.9073C40.6844 34.8183 44.1114 36.2209 46.2689 37.0031C47.9147 37.5972 49.2915 38.0279 49.2915 38.9999C49.2915 39.7557 48.4545 40.4289 46.647 40.4289C44.5159 40.4289 42.3021 39.485 40.8462 38.2986V43.7475C42.3302 44.7459 44.7321 45.5 47.3485 45.5C52.4213 45.5 55.3085 42.6683 55.3085 38.8382C55.3085 34.5493 51.6389 33.282 48.9416 32.3381C47.3503 31.7721 46.4588 31.4487 46.4588 30.7474C46.4588 30.046 47.2677 29.5609 48.8607 29.5609C50.6138 29.5609 52.773 30.1814 54.0408 31.0708V25.8907C52.5831 25.0541 50.6138 24.4881 48.4282 24.4881ZM56.6818 45.0676H62.5634V24.9205H56.6818V45.0694V45.0676ZM70.8733 39.754H72.0075C75.0564 39.754 77.0258 38.0279 77.0258 35.0063C77.0258 31.9848 75.0564 30.2323 72.0075 30.2323H70.8733V39.754ZM82.9619 35.0063C82.9619 41.0758 78.3744 45.0676 71.7912 45.0676H64.9917V24.9205H71.7912C78.3744 24.9205 82.9619 28.9386 82.9619 35.0081V35.0063ZM84.5567 45.0676H98.4792V39.8348H90.4384V37.3265H97.6687V32.5789H90.4384V30.1515H98.4792V24.9205H84.5567V45.0694V45.0676ZM107.737 34.4403C109.221 34.4403 110.381 33.739 110.381 32.3363C110.381 30.9337 109.221 30.2323 107.711 30.2323H106.469V34.4403H107.737ZM117.369 45.0676H110.434L106.603 38.8364H106.467V45.0676H100.586V24.9205H107.763C112.81 24.9205 116.316 27.1598 116.316 31.9338C116.316 33.8216 115.479 36.5725 112.133 37.9752L117.367 45.0694L117.369 45.0676Z" fill="#D1D4E2" fill-opacity="0.5"></path></svg> 