<?xml version="1.0" encoding="UTF-8"?> <svg xmlns="http://www.w3.org/2000/svg" width="128" height="58" viewBox="0 0 128 58" fill="none"><path d="M106.474 31.7997V32.6512H108.866L106.011 51.5394L102.693 31.7997H100.301L97.4467 52.0038L94.7463 32.5738H97.4467V31.7222H88.8825V32.5738H90.7342L94.5148 57.4226H97.601L100.224 41.7082L103.079 57.4226H106.165L109.946 32.6512H112.415V31.7997H106.474ZM75.3804 32.5738H77.8493V56.5711H75.4575V57.4226H88.0338V50.6879H87.4165C87.4165 50.6879 87.2622 53.3972 86.8764 54.5584C86.4907 55.4099 85.5648 56.2614 84.6389 56.4937C83.7902 56.6485 82.17 56.6485 82.17 56.6485V43.9531C82.17 43.9531 84.0989 43.8757 84.6389 44.1854C85.4877 44.8821 85.5648 46.1206 85.7191 47.514H86.3363V40.0052H85.642C85.642 40.9341 85.2562 42.1727 84.5618 42.7146C83.8674 43.4113 82.0928 43.1016 82.0928 43.1016V32.6512C82.0928 32.6512 84.4846 32.5738 85.2562 32.7286C87.1079 33.6575 87.1851 35.7476 87.4165 37.6055H88.0338V31.7997H75.3032L75.3804 32.5738ZM71.5226 32.5738H73.9144V31.7222H65.5045V32.5738H67.5877V56.5711H65.1188V57.4226H74.1459V56.5711H71.5998C71.5226 56.5711 71.5226 32.5738 71.5226 32.5738ZM60.3352 32.5738H62.4955L58.7149 54.9454C58.6377 54.9454 54.9343 32.5738 54.9343 32.5738H57.1718V31.7222H49.2248V32.5738H50.4593L55.1658 57.3452H59.255L63.6528 32.5738H64.8873V31.7222H60.4895V32.5738H60.3352ZM47.6817 54.4036C46.7559 56.4937 43.5925 56.5711 42.1266 56.5711V44.3402C42.1266 44.3402 44.2869 44.3402 44.827 44.6498C45.6757 45.2691 45.9072 46.5077 46.0615 47.7463H46.6787V40.0052H45.9843C45.9072 41.1663 45.83 42.5597 44.7498 43.3338C44.1326 43.7983 42.0494 43.5661 42.0494 43.5661V32.6512C42.8981 32.6512 44.6727 32.4964 45.4443 32.806C47.3731 33.7349 47.4503 35.9798 47.6046 37.9151H48.299V31.7222H35.9542V32.5738H37.8831V56.6485H36.1085V57.5H48.8391V50.7653H48.1447C48.0675 52.0813 47.9904 53.3198 47.6817 54.4036ZM34.2568 56.4162C33.1766 53.165 32.868 49.9137 31.4021 46.8947C30.4762 45.0369 28.4702 44.1854 26.6184 44.0305C28.7788 43.7983 31.0163 42.9468 32.0964 40.7019C32.7908 38.9988 32.9451 36.2121 31.865 34.509C30.7848 32.806 29.1646 31.8771 27.2357 31.7997H17.2055V32.6512H19.6745V56.6485H17.1284V57.4226H26.2327V56.5711H23.9952V44.3402H24.5353C25.6154 44.4176 27.0042 44.8046 27.4671 45.6562C28.7016 47.5914 29.7046 54.6358 29.9361 56.0292C30.0133 56.5711 29.9361 57.1129 30.2447 57.5H35.7227V56.6485C35.4913 56.6485 34.5654 56.6485 34.2568 56.4162ZM23.7637 43.4887V32.5738C24.4581 32.5738 26.1555 32.5738 26.6184 32.8834C28.393 34.7413 28.2387 37.9925 28.1615 40.4697C28.0072 41.5534 27.6215 42.8694 26.5413 43.3338C25.9241 43.5661 23.7637 43.4887 23.7637 43.4887ZM128 20.1305H127.151C127.151 21.2142 127.151 22.4528 126.92 23.4591C126.534 24.3881 125.763 25.5492 124.682 25.704H121.442V1.70674H124.142V0.855222H115.038V1.70674H117.275V25.704H114.961V26.5556H128C128 24.5429 127.923 22.2206 128 20.1305ZM107.4 1.01004H103.619L99.4527 25.7815H97.4467V26.5556H102.77V25.704H100.533L101.844 17.8856H106.782L108.326 25.704H105.934V26.5556H114.266V25.704H112.646C112.646 25.7815 107.4 1.01004 107.4 1.01004ZM101.844 16.9566L103.773 4.80317L106.397 16.9566H101.844ZM96.598 1.78415V0.932633H87.8023V1.78415H89.9626V25.7815H87.7251V26.633H96.5208V25.7815H94.4376V1.78415H96.598ZM82.6329 25.704C81.7842 26.1685 80.164 26.0137 79.5467 25.317C78.2351 23.7688 77.3864 21.1368 77.2321 19.0467C76.7691 14.2473 76.7691 11.9249 77.3864 8.13182C77.695 5.96433 78.3122 3.79683 79.7782 2.24861C80.704 1.3971 82.3243 1.55192 83.3273 2.09379C85.3333 3.40977 85.2562 5.88692 85.4105 8.05441H86.2592V0.932633H85.5648C85.5648 1.31969 85.5648 1.62933 85.2562 1.86156C84.5618 2.01638 84.176 1.16486 83.6359 1.01004C82.17 0.158526 80.0868 0.468169 78.6209 1.24228C75.3032 3.17754 73.1429 6.81584 72.9114 10.5316C72.3713 16.3374 73.22 22.4528 78.0036 25.8589C79.5467 26.5556 81.7071 27.4071 83.2502 26.2459C83.2502 26.2459 84.4846 25.0073 84.9476 25.0073C85.4105 25.0073 85.4105 25.8589 85.4105 26.4007H86.1049V20.0531H85.179C85.0247 22.1432 85.3333 23.8462 82.6329 25.704ZM72.9886 1.78415V0.932633H67.8963V1.78415H69.8252V18.8145L63.0356 0.932633H57.0175V1.78415H59.1778V25.7815H56.9403V26.633H62.4183V25.7815H60.258V5.49986L68.2821 26.7104H70.9825V1.93897H73.1429L72.9886 1.78415ZM50.0735 1.01004H46.1386L41.8951 25.7815H39.7348V26.5556H45.5214V25.704H43.0524L44.3641 17.7307H48.9162L50.5365 25.704H48.2218V26.5556H56.1688V25.704H55.0115C55.0886 25.7815 50.0735 1.01004 50.0735 1.01004ZM44.4412 16.8018L46.2929 5.42245L48.6848 16.8018H44.4412ZM40.815 1.78415V0.932633H35.5684V1.78415H37.7288V19.4338L30.7848 1.01004H24.6896V1.86156H26.8499V25.8589H24.6124V26.633H30.3219V25.7815H28.0072V5.96433L35.5684 26.7104H38.8089V1.93897H40.8921C40.815 1.86156 40.815 1.78415 40.815 1.78415ZM21.2948 1.78415H23.5323V0.932633H14.6594V1.78415H17.1284V25.7815H14.2737V26.633H23.6866V25.7815H21.2948V1.78415ZM0 1.78415H3.24051V25.7815H0V26.633H10.1073V25.7815H7.40687V13.3183H9.64437C10.8017 13.3183 11.0332 15.4858 10.956 16.647H11.8047V8.75111H10.956C11.0332 10.0671 10.7245 12.5442 9.64437 12.5442H7.48403V1.70674C8.87282 1.78415 11.0332 1.86156 12.0362 2.94531C13.3478 4.26129 13.2706 6.19656 13.425 7.977H14.0422V1.01004H0V1.78415Z" fill="#D1D4E2" fill-opacity="0.5"></path></svg> 