<?xml version="1.0" encoding="UTF-8"?> <svg xmlns="http://www.w3.org/2000/svg" width="128" height="32" viewBox="0 0 128 32" fill="none"><path d="M72.5613 10.4306C72.5613 6.69618 72.6259 3.21932 72.8198 0L62.9339 1.8672V2.76861L63.9031 2.89738C64.6138 2.96177 65.0661 3.21932 65.3246 3.60563C65.583 4.05634 65.7769 4.7002 65.9061 5.666C66.0353 7.5332 66.1646 11.7827 66.0999 18.4789C66.0999 25.1107 66.0353 29.2958 65.9061 30.9054C69.4599 31.6781 72.2383 32 74.3059 32C78.1827 32 81.2196 30.9054 83.4165 28.6519C85.6133 26.4628 86.7764 23.3722 86.7764 19.5734C86.7764 16.5473 85.9364 14.0362 84.2564 12.0402C82.5765 10.0443 80.4442 9.07847 77.9243 9.07847C76.2443 9.07847 74.4997 9.52917 72.5613 10.4306ZM72.7552 30.2616C72.6259 28.2012 72.4967 22.0201 72.4967 11.9115C73.0782 11.7183 73.8536 11.5895 74.8228 11.5895C76.3736 11.5895 77.6012 12.3622 78.5058 13.9718C79.4104 15.5815 79.8627 17.5131 79.8627 19.9598C79.8627 22.9859 79.3458 25.4326 78.312 27.493C77.2781 29.4889 75.9859 30.5191 74.3705 30.5191C73.8536 30.3903 73.3367 30.326 72.7552 30.2616ZM25.8455 0.643863H0V1.93159L1.35689 2.06036C2.39071 2.25352 3.10146 2.63984 3.55376 3.21932C4.00606 3.86318 4.26451 4.89336 4.32913 6.30986C4.84604 13.2636 4.84604 19.7666 4.32913 25.7545C4.1999 27.171 3.94144 28.2012 3.55376 28.8451C3.10146 29.4889 2.39071 29.8752 1.35689 30.004L0 30.1972V31.4849H16.6704V30.1972L14.9258 30.0684C14.5001 30.0329 14.086 29.9119 13.7084 29.7128C13.3309 29.5136 12.9977 29.2403 12.7289 28.9095C12.2766 28.2656 12.0182 27.2354 11.9536 25.8189C11.7597 23.2435 11.6305 20.2817 11.6305 16.998L15.1196 17.0624C16.9934 17.1268 18.2857 18.5433 18.9319 21.3763H20.2241V10.8813H18.9319C18.2857 13.6499 17.0581 15.0664 15.1196 15.1308L11.6305 15.1952C11.6305 9.4004 11.7597 5.27968 11.9536 2.76861H17.0581C20.6764 2.76861 23.1318 5.08652 24.5533 9.72233L26.104 9.27163L25.8455 0.643863ZM22.8087 20.4748C22.8087 23.8229 23.7779 26.5915 25.6517 28.7807C27.5255 30.9698 30.3039 32 33.793 32C37.2822 32 40.1252 30.9054 42.1928 28.6519C44.2605 26.4628 45.2297 23.6942 45.2297 20.3461C45.2297 16.998 44.2605 14.2294 42.3867 12.0402C40.5129 9.85111 37.7345 8.82092 34.2453 8.82092C30.7562 8.82092 27.9132 9.91549 25.8455 12.169C23.7779 14.3581 22.8087 17.1268 22.8087 20.4748ZM37.2176 13.1348C37.9929 15.002 38.316 17.4487 38.316 20.4105C38.316 27.2354 36.8945 30.5835 34.1161 30.5835C32.6946 30.5835 31.5962 29.6177 30.8208 27.6861C30.0454 25.7545 29.7224 23.3078 29.7224 20.4105C29.7224 13.6499 31.1439 10.3018 33.9223 10.3018C35.3438 10.2374 36.4422 11.2032 37.2176 13.1348ZM91.8163 28.7807C93.9485 30.9054 96.6623 32 99.893 32C101.896 32 103.641 31.6137 105.191 30.7767C106.742 30.004 107.97 29.0382 108.81 27.8793L108.164 27.1066C106.742 28.2012 105.127 28.7163 103.253 28.7163C100.668 28.7163 98.6653 27.8793 97.3084 26.1408C95.8869 24.4024 95.2408 22.2133 95.37 19.3803H109.197C109.197 16.2897 108.422 13.7787 106.807 11.7827C105.191 9.8511 102.93 8.88531 100.022 8.88531C96.4038 8.88531 93.6254 10.0443 91.6224 12.2978C89.6194 14.5513 88.6502 17.3199 88.6502 20.6036C88.6502 23.9517 89.684 26.6559 91.8163 28.7807ZM96.5977 12.6197C97.3084 11.0744 98.213 10.3018 99.4407 10.3018C101.379 10.3018 102.348 12.7485 102.348 17.7062L95.4992 17.835C95.5639 15.9034 95.8869 14.165 96.5977 12.6197ZM126.578 10.0443C124.834 9.27163 122.637 8.82092 119.988 8.82092C117.274 8.82092 115.142 9.52917 113.526 10.8813C111.911 12.2334 111.071 13.9074 111.071 15.9034C111.071 17.6419 111.588 18.994 112.557 19.9598C113.526 20.9256 115.077 21.7626 117.08 22.4708C118.889 23.1147 120.182 23.7585 120.828 24.338C121.474 24.9819 121.862 25.6901 121.862 26.6559C121.862 27.5573 121.539 28.3944 120.828 29.0382C120.182 29.7465 119.277 30.0684 118.114 30.0684C115.271 30.0684 113.139 28.008 111.653 23.8873L110.554 24.2093L110.813 30.6479C113.139 31.5493 115.723 32 118.566 32C121.539 32 123.8 31.3561 125.48 30.004C127.16 28.7163 128 26.8491 128 24.5312C128 22.9859 127.612 21.6982 126.772 20.7324C125.932 19.7666 124.575 18.9296 122.637 18.1569C120.505 17.3843 119.019 16.6761 118.243 16.0322C117.468 15.3883 117.08 14.6157 117.08 13.6499C117.08 12.6841 117.339 11.9115 117.92 11.2676C118.502 10.6237 119.213 10.3662 120.117 10.3662C122.702 10.3662 124.575 12.2334 125.739 15.9034L126.837 15.5815L126.578 10.0443ZM64.42 9.46479C63.5154 9.01408 62.5462 8.82092 61.4478 8.82092C60.3493 8.82092 59.2509 9.27163 58.0232 10.173C56.7956 11.0744 55.891 12.2978 55.1802 13.9718L55.2448 8.82092L45.4235 10.7525V11.6539L46.3927 11.7183C47.6204 11.8471 48.3311 12.8129 48.4604 14.5513C48.8481 18.5433 48.8481 22.7928 48.4604 27.2998C48.3311 29.0382 47.6204 29.9396 46.3927 30.1328L45.4235 30.2616V31.4849H59.1217V30.2616L57.3771 30.1328C56.1494 30.004 55.4387 29.0382 55.3094 27.2998C54.9218 23.5654 54.8571 19.5734 55.1802 15.4527C55.5679 14.8089 56.4079 14.4225 57.7001 14.2938C58.9924 14.165 60.4785 14.5513 62.0293 15.4527L64.42 9.46479Z" fill="#D1D4E2" fill-opacity="0.5"></path></svg> 