<?xml version="1.0" encoding="UTF-8"?> <svg xmlns="http://www.w3.org/2000/svg" width="128" height="40" viewBox="0 0 128 40" fill="none"><path d="M16.0725 29.7857H8.85477C7.21776 29.7857 5.87838 28.4726 5.87838 26.7947V25.9923C5.87838 25.1898 5.80397 24.9709 5.80397 24.9709C5.50633 23.9496 4.61341 22.8554 3.64608 21.8341C3.27403 21.3964 2.97639 21.0316 2.60434 20.6668C0.967328 18.4783 0 15.8521 0 13.08C0 6.29553 5.58074 0.824219 12.5009 0.824219C19.421 0.824219 25.0017 6.29553 25.0017 13.08C25.0017 15.8521 24.1088 18.4783 22.323 20.6668C22.0253 21.0316 21.7277 21.3234 21.43 21.6882L21.3556 21.7611C20.4627 22.8554 19.3466 24.0226 19.0489 25.1168C19.0489 25.1168 19.0489 25.3357 19.0489 25.9923V26.7947C19.0489 28.3996 17.7095 29.7857 16.0725 29.7857ZM9.078 26.5759H15.7749V25.9923C15.7749 24.9709 15.8493 24.4603 15.9237 24.2414C16.4446 22.4906 17.7095 21.0316 18.8257 19.6455L18.9001 19.5726C19.1977 19.2078 19.4954 18.916 19.7186 18.6242C20.9836 17.0193 21.6533 15.0496 21.6533 13.007C21.6533 7.9734 17.4863 3.9611 12.4264 3.9611C7.36658 3.9611 3.27403 8.04635 3.27403 13.08C3.27403 15.1226 3.94372 17.0193 5.2831 18.6242C5.58074 18.989 5.87838 19.3537 6.17602 19.7185V19.7914C7.21776 21.0316 8.48272 22.4177 8.92918 24.1685C9.00359 24.4603 9.078 24.898 9.078 26.0652V26.5759ZM17.5607 32.7037C17.5607 31.8283 16.8166 31.0988 15.9237 31.0988H9.00359C8.11067 31.0988 7.36658 31.8283 7.36658 32.7037C7.36658 33.5791 8.11067 34.3087 9.00359 34.3087H15.9237C16.8166 34.3087 17.5607 33.5791 17.5607 32.7037ZM17.5607 15.2685C17.5607 14.3931 16.8166 13.6636 15.9237 13.6636H9.00359C8.11067 13.6636 7.36658 14.3931 7.36658 15.2685C7.36658 16.1439 8.11067 16.8734 9.00359 16.8734H15.9237C16.8166 16.8734 17.5607 16.1439 17.5607 15.2685Z" fill="#D1D4E2" fill-opacity="0.5"></path><path d="M43.4405 5.28881H47.5032L47.5925 7.6104C48.2622 5.9585 49.557 5.06558 51.4321 5.06558C53.1286 5.06558 54.2894 5.86921 54.8252 7.29788C55.5395 5.82456 56.8789 5.06558 58.5754 5.06558C60.7631 5.06558 62.2364 6.40496 62.2364 8.90513L62.1471 16.4949H57.6825V10.0659C57.6825 8.86048 57.2807 8.45867 56.5664 8.45867C55.6288 8.45867 55.0931 9.173 55.0931 10.6017V16.4949H50.5838V10.0659C50.5838 8.86048 50.182 8.45867 49.4677 8.45867C48.6194 8.45867 47.9944 9.12836 47.9944 10.6017V16.4949H43.4405V5.28881ZM75.541 13.9055L75.3178 16.3163C74.8267 16.5396 74.2463 16.6735 73.4873 16.6735C71.8801 16.6735 70.7193 16.0931 70.3175 14.8877C69.7371 16.0038 68.3083 16.6735 66.7011 16.6735C64.3795 16.6735 62.9954 15.5574 62.9954 13.6376C62.9954 11.9857 64.0223 10.9588 66.0314 10.557L69.6924 9.7534V9.39623C69.6924 8.50331 69.2013 8.01221 68.3976 8.01221C67.594 8.01221 67.0136 8.36938 66.8797 9.53017L63.04 8.81584C63.3526 6.49425 65.1831 5.02093 68.7102 5.02093C72.2372 5.02093 74.157 6.62819 74.157 9.30694V13.0572C74.157 13.6376 74.4249 13.9501 75.0053 13.9501C75.2285 13.9948 75.4071 13.9948 75.541 13.9055ZM69.737 12.5661V11.7178L68.4423 12.0303C67.6833 12.2089 67.3708 12.5214 67.3708 13.1018C67.3708 13.6822 67.7726 13.9948 68.3976 13.9948C69.0673 13.9948 69.737 13.5483 69.737 12.5661ZM76.0768 5.28881H80.1396L80.2735 7.92292C80.7646 6.18173 81.8361 5.06558 83.5773 5.06558C84.2024 5.06558 84.5595 5.19952 84.7381 5.33346L84.3363 8.99442C84.0684 8.90513 83.5327 8.77119 82.9523 8.77119C81.5682 8.77119 80.586 9.53017 80.586 10.9588V16.4503H76.0768V5.28881ZM92.9529 15.9145C92.2386 16.4056 90.8546 16.7182 89.7384 16.7182C86.8811 16.7182 85.2738 15.6913 85.2738 12.9233V2.87793L89.7831 1.62785V5.33346H92.819V8.45867H89.7831V12.2536C89.7831 13.3251 90.2742 13.7269 91.1671 13.7269C91.8368 13.7269 92.2386 13.5929 92.6851 13.3697L92.9529 15.9145ZM37.7704 34.5765C33.1719 34.5765 30.3592 31.7638 30.3592 26.9421C30.3592 22.1203 33.1719 19.3523 37.7258 19.3523C40.8957 19.3523 43.5744 20.647 44.2441 23.6383L40.2706 25.2455C39.9135 23.3704 39.1098 22.8793 37.8597 22.8793C36.0293 22.8793 35.047 24.2187 35.047 26.9867C35.047 29.7548 35.8953 31.0941 37.949 31.0941C39.1991 31.0941 40.0474 30.3798 40.3153 28.8619L44.378 29.978C43.5298 33.2818 41.0296 34.5765 37.7704 34.5765ZM56.9235 28.7726C56.9235 32.4335 54.468 34.5765 50.8517 34.5765C47.2354 34.5765 44.7799 32.4335 44.7799 28.7726C44.7799 25.1116 47.2354 22.9686 50.8517 22.9686C54.468 22.9686 56.9235 25.1116 56.9235 28.7726ZM49.2891 28.7726C49.2891 30.8263 49.8248 31.496 50.807 31.496C51.7893 31.496 52.325 30.8263 52.325 28.7726C52.325 26.7188 51.7893 26.0492 50.807 26.0492C49.8248 26.0492 49.2891 26.7188 49.2891 28.7726ZM57.5039 23.1472H61.5667L61.656 25.4688C62.3257 23.8169 63.6651 22.9239 65.4956 22.9239C67.1921 22.9239 68.3977 23.7276 68.8888 25.1562C69.5585 23.6829 70.9425 22.9239 72.6391 22.9239C74.8267 22.9239 76.3 24.2633 76.3 26.7635L76.2554 34.3533H71.7908V27.9243C71.7908 26.7188 71.389 26.317 70.6746 26.317C69.7817 26.317 69.1566 27.0314 69.1566 28.46V34.3533H64.6473V27.9243C64.6473 26.7188 64.2455 26.317 63.5311 26.317C62.6382 26.317 62.0132 26.9867 62.0132 28.46V34.3533H57.5039V23.1472ZM89.8724 28.7279C89.8724 32.4335 88.1758 34.5765 85.4524 34.5765C83.8452 34.5765 82.7737 33.7283 82.1933 32.4335V39.0411H77.684V23.1472H81.7915L81.8808 25.4241C82.5058 23.9062 83.7559 22.9239 85.4971 22.9239C88.1758 22.9239 89.8724 25.0669 89.8724 28.7279ZM85.3185 28.7726C85.3185 26.8528 84.6935 26.1831 83.7559 26.1831C82.8183 26.1831 82.1933 27.0314 82.1933 28.7726C82.1933 30.4245 82.729 31.362 83.7559 31.362C84.7827 31.362 85.3185 30.6923 85.3185 28.7726ZM102.507 31.7638L102.284 34.1747C101.793 34.3979 101.168 34.5319 100.498 34.5319C98.9355 34.5319 97.7301 33.9515 97.3282 32.746C96.7032 33.8622 95.3192 34.5319 93.7119 34.5319C91.3903 34.5319 90.0063 33.4157 90.0063 31.496C90.0063 29.8441 91.0332 28.8172 93.0422 28.4154L96.7032 27.6118V27.2546C96.7032 26.3617 96.2567 25.8706 95.4085 25.8706C94.5602 25.8706 94.0691 26.2277 93.8905 27.3885L90.051 26.6742C90.3188 24.3526 92.2386 22.8793 95.721 22.8793C99.2034 22.8793 101.168 24.4866 101.168 27.1653V30.9156C101.168 31.496 101.436 31.8085 102.016 31.8085C102.195 31.8531 102.373 31.8531 102.507 31.7638ZM96.7032 30.4245V29.5762L95.3638 29.8887C94.6495 30.0673 94.2923 30.3798 94.2923 30.9602C94.2923 31.5406 94.7388 31.8531 95.3192 31.8531C96.0335 31.8531 96.7032 31.4067 96.7032 30.4245ZM114.695 26.8081V34.3979H110.186V27.9689C110.186 26.7188 109.74 26.317 109.025 26.317C108.133 26.317 107.508 26.9421 107.508 28.46V34.3533H102.998V23.1472H107.061L107.15 25.5134C107.82 23.8169 109.159 22.9239 110.99 22.9239C113.311 22.9239 114.695 24.308 114.695 26.8081ZM124.339 33.6836C123 37.7017 121.303 39.1751 118.089 39.1751C116.749 39.1751 115.633 38.8625 114.829 38.4161L115.678 35.4694C116.169 35.782 116.66 35.9159 117.687 35.9159C118.714 35.9159 119.071 35.7373 119.294 35.0676L119.473 34.6658L118.133 31.496L114.874 23.1472H119.83L121.169 29.219L121.616 31.7192L122.151 29.1744L123.535 23.1918H128L124.339 33.6836ZM30.3592 13.4144C30.3592 12.8786 30.4039 12.5214 30.4485 12.2536L34.1541 11.2714C34.0648 11.6285 34.0202 11.8518 34.0202 12.1196C34.0202 13.1911 34.7345 13.7715 36.5204 13.7715C38.0383 13.7715 38.6634 13.1911 38.6634 12.3875C38.6634 11.4946 38.0383 11.0035 35.7614 10.6017C32.0111 9.88734 30.5378 8.45867 30.5378 5.69062C30.5378 2.92258 32.7701 0.824219 36.6989 0.824219C40.4492 0.824219 42.2797 2.02966 42.369 5.02093L38.5741 6.4496C38.6187 5.02093 38.0383 4.03872 36.565 4.03872C35.4489 4.03872 34.8685 4.66377 34.8685 5.64598C34.8685 6.58354 35.5828 7.11929 37.7704 7.56575C41.2975 8.32473 42.5922 9.57482 42.5922 12.1196C42.5922 15.2895 39.9581 16.9414 36.1185 16.9414C32.6362 17.0307 30.3592 15.5574 30.3592 13.4144Z" fill="#D1D4E2" fill-opacity="0.5"></path></svg> 