<?xml version="1.0" encoding="UTF-8"?> <svg xmlns="http://www.w3.org/2000/svg" width="104" height="74" viewBox="0 0 104 74" fill="none"><path d="M12.175 61H1.875V63.975H5.325V73.3H8.725V63.975H12.175V61Z" fill="#D1D4E2" fill-opacity="0.5"></path><path d="M16.0502 63.875C13.6252 63.875 11.8252 65.5 11.8252 68.7C11.8252 71.525 13.3502 73.5 16.1252 73.5C17.5752 73.5 18.7502 73.125 19.8752 72.45L18.6752 70.425C17.7502 70.9 17.1002 71.075 16.2752 71.075C15.4252 71.075 14.8252 70.625 14.7002 69.6H20.1252C20.1502 69.45 20.1502 69.25 20.1502 68.975C20.1752 65.55 18.6002 63.875 16.0502 63.875ZM14.7502 67.625C14.8502 66.7 15.2502 66.225 15.9752 66.225C16.9002 66.225 17.2252 66.7 17.3752 67.625H14.7502Z" fill="#D1D4E2" fill-opacity="0.5"></path><path d="M26.175 70.925C25.325 70.925 24.875 70.175 24.875 68.7C24.875 67.25 25.275 66.425 26.1 66.425C26.775 66.425 27.075 66.8 27.525 67.625L29.7 65.975C28.9 64.675 27.9 63.875 26.15 63.875C23.2 63.875 21.75 65.825 21.75 68.65C21.75 71.75 23.375 73.475 26.075 73.475C27.7 73.475 28.7 72.85 29.775 71.275L27.775 69.7C27.175 70.6 26.775 70.925 26.175 70.925Z" fill="#D1D4E2" fill-opacity="0.5"></path><path d="M37.0752 63.875C35.9752 63.875 35.3252 64.25 34.7502 64.675V60.5L31.5752 61.775V73.325H34.7502V68.05C34.7502 66.9 35.1502 66.575 35.8252 66.575C36.4752 66.575 36.8752 66.9 36.8752 68.075V73.325H40.0502V67.675C40.0502 65.25 39.0752 63.875 37.0752 63.875Z" fill="#D1D4E2" fill-opacity="0.5"></path><path d="M47.6754 70.5248C46.2004 70.5248 45.6004 69.0248 45.6004 67.1498C45.6004 65.1998 46.2254 63.7748 47.6504 63.7748C48.7754 63.7748 49.2004 64.4998 49.6254 65.6498L52.7254 64.4248C51.8754 62.0998 50.6754 60.7998 47.6504 60.7998C44.3504 60.7998 42.0254 63.1998 42.0254 67.1498C42.0254 70.7998 43.9754 73.4998 47.6254 73.4998C50.5504 73.4998 51.9254 71.9248 52.7504 70.3248L49.8754 68.7998C49.2004 69.9498 48.7504 70.5248 47.6754 70.5248Z" fill="#D1D4E2" fill-opacity="0.5"></path><path d="M57.8498 64.75V64.075H54.6748V73.3H57.8498V68.275C57.8498 67.15 58.3248 66.775 59.0998 66.775C59.7248 66.775 60.1748 67.1 60.5748 67.55L61.3248 64.275C60.9498 64.05 60.4998 63.875 59.8248 63.875C58.9998 63.875 58.3748 64.225 57.8498 64.75Z" fill="#D1D4E2" fill-opacity="0.5"></path><path d="M68.1002 69.3492C68.1002 70.4992 67.7002 70.8242 67.0502 70.8242C66.4002 70.8242 66.0002 70.4992 66.0002 69.3242V64.0742H62.8252V69.7242C62.8252 72.1492 63.8002 73.4992 65.8252 73.4992C66.9002 73.4992 67.5752 73.1242 68.1252 72.6992V73.3242H71.3002V64.0992H68.1252V69.3492" fill="#D1D4E2" fill-opacity="0.5"></path><path d="M79.0752 63.875C77.9752 63.875 77.3252 64.25 76.7502 64.675V64.05H73.5752V73.275H76.7502V68C76.7502 66.85 77.1502 66.525 77.8252 66.525C78.4752 66.525 78.8752 66.85 78.8752 68.025V73.275H82.0502V67.625C82.0502 65.25 81.1002 63.875 79.0752 63.875Z" fill="#D1D4E2" fill-opacity="0.5"></path><path d="M88.3504 70.925C87.5004 70.925 87.0504 70.175 87.0504 68.7C87.0504 67.25 87.4504 66.425 88.2504 66.425C88.9254 66.425 89.2254 66.8 89.6754 67.625L91.8504 65.975C91.0504 64.675 90.0504 63.875 88.3004 63.875C85.3504 63.875 83.9004 65.825 83.9004 68.65C83.9004 71.75 85.5254 73.475 88.2254 73.475C89.8504 73.475 90.8504 72.85 91.9254 71.275L89.9254 69.7C89.3754 70.6 88.9504 70.925 88.3504 70.925Z" fill="#D1D4E2" fill-opacity="0.5"></path><path d="M99.25 63.875C98.15 63.875 97.5 64.25 96.925 64.675V60.5L93.75 61.775V73.325H96.925V68.05C96.925 66.9 97.325 66.575 98 66.575C98.65 66.575 99.05 66.9 99.05 68.075V73.325H102.225V67.675C102.25 65.25 101.275 63.875 99.25 63.875Z" fill="#D1D4E2" fill-opacity="0.5"></path><path d="M68.9467 18.1902H103.125V0.5H68.9467V18.1902Z" fill="#D1D4E2" fill-opacity="0.5"></path><path d="M0.875 0.5V18H17.849V53H34.823V18H51.8576V0.5H0.875Z" fill="#D1D4E2" fill-opacity="0.5"></path><path d="M51.8576 53H103.125V35.5951H68.9264V18.1902H51.8576V53Z" fill="#D1D4E2" fill-opacity="0.5"></path></svg> 