<?xml version="1.0" encoding="UTF-8"?> <svg xmlns="http://www.w3.org/2000/svg" width="128" height="32" viewBox="0 0 128 32" fill="none"><path d="M114.974 0.44017V31.5565H128V26.2877H120.316V18.2157H125.27V12.9469H120.316V5.70897H128V0.44017H114.974Z" fill="#D1D4E2" fill-opacity="0.5"></path><path d="M104.402 0.44017V17.4082L98.9992 0.44017H93.6565V31.5565H98.9992V16.3128L103.829 31.5565H109.745V0.44017H104.402Z" fill="#D1D4E2" fill-opacity="0.5"></path><path d="M83.2595 0.44017V24.6793C83.2595 25.8078 82.3305 26.7246 81.1869 26.7246C80.0432 26.7246 79.1142 25.8078 79.1142 24.6793V0.44017H73.7715V24.6793C73.7715 28.7202 77.0918 31.9967 81.1869 31.9967C85.2819 31.9967 88.6022 28.7202 88.6022 24.6793V0.44017H83.2595Z" fill="#D1D4E2" fill-opacity="0.5"></path><path d="M69.3679 0.44017H54.5673V5.70897H59.2962V31.5565H64.6389V5.70897H69.3679V0.44017Z" fill="#D1D4E2" fill-opacity="0.5"></path><path d="M46.5985 31.5565L42.651 16.7794C42.651 16.7794 46.0485 16.1771 46.0485 12.6094V7.74765C46.0485 6.61909 45.1228 5.70566 43.9825 5.70566H41.9299V31.5565H36.5872V0.44017H43.9791C47.9635 0.44017 51.2034 3.54452 51.3744 7.42993H51.3912V12.5167H51.3744C51.3744 15.588 50.3548 17.802 48.4934 19.2119L52.1223 31.5565H46.5985Z" fill="#D1D4E2" fill-opacity="0.5"></path><path d="M16.4775 7.31741V24.6826C16.4775 28.7236 19.7978 32 23.8929 32C27.9879 32 31.3083 28.7236 31.3083 24.6826V7.3141C31.3083 3.27314 27.9913 0 23.8962 0C19.8012 0 16.4809 3.27645 16.4809 7.31741M21.8236 24.6826V7.31741C21.8236 6.18885 22.7526 5.27211 23.8962 5.27211H23.9029C25.0433 5.27211 25.9689 6.18554 25.9689 7.31079V24.6793C25.9689 25.8078 25.0399 26.7246 23.8962 26.7246C22.7526 26.7246 21.8236 25.8078 21.8236 24.6793" fill="#D1D4E2" fill-opacity="0.5"></path><path d="M0 0.44017V31.5565H5.3427V18.2157H10.293V12.9469H5.3427V5.70897H13.023V0.44017H0Z" fill="#D1D4E2" fill-opacity="0.5"></path></svg> 